# xmcd
#
# Track frame offsets:
#	150
#	18230
#	35495
#	52030
#	73435
#	87752
#	111787
#	130615
#	145627
#	165955
#	182482
#	200997
#	214027
#	228572
#	254207
#
# Disc length: 3994 seconds
#
# Revision: 0
# Processed by: cddbd v1.5.1PL0 Copyright (c) Steve Scherf et al.
# Submitted via: dBpowerAMP V4.0
#
DISCID=d90f980f
DTITLE=The Welfare Poets - Project Blues
DYEAR=1900
DGENRE=Blues
TTITLE0=Through the Shadow of Death
TTITLE1=Project Blues
TTITLE2=How Dare You!
TTITLE3=Divine Decree
TTITLE4=The Bullet
TTITLE5=Affirmative Actions
TTITLE6=We Are Guerillas in the Streets
TTITLE7=Foreign Tones
TTITLE8=Taxation Without Representation
TTITLE9=Help Wanted
TTITLE10=Color Me Red
TTITLE11=500 Lashes
TTITLE12=Just Die
TTITLE13=One Two
TTITLE14=In the Name of Liberty
EXTD=
EXTT0=
EXTT1=
EXTT2=
EXTT3=
EXTT4=
EXTT5=
EXTT6=
EXTT7=
EXTT8=
EXTT9=
EXTT10=
EXTT11=
EXTT12=
EXTT13=
EXTT14=
PLAYORDER=
